<?xml version="1.0" encoding="UTF-8" standalone="no"?>
<!-- Created with Inkscape (http://www.inkscape.org/) -->

<svg
   xmlns:dc="http://purl.org/dc/elements/1.1/"
   xmlns:cc="http://creativecommons.org/ns#"
   xmlns:rdf="http://www.w3.org/1999/02/22-rdf-syntax-ns#"
   xmlns:svg="http://www.w3.org/2000/svg"
   xmlns="http://www.w3.org/2000/svg"
   xmlns:xlink="http://www.w3.org/1999/xlink"
   xmlns:sodipodi="http://sodipodi.sourceforge.net/DTD/sodipodi-0.dtd"
   xmlns:inkscape="http://www.inkscape.org/namespaces/inkscape"
   width="190"
   height="36"
   id="svg6992"
   version="1.1"
   inkscape:version="0.48.4 r9939"
   sodipodi:docname="close.svg">
  <defs
     id="defs6994">
    <linearGradient
       id="linearGradient3847">
      <stop
         id="stop3849"
         offset="0"
         style="stop-color:#1c8bb2;stop-opacity:1;" />
      <stop
         id="stop3851"
         offset="1"
         style="stop-color:#209cc6;stop-opacity:1;" />
    </linearGradient>
    <linearGradient
       id="linearGradient3816">
      <stop
         style="stop-color:#33b2df;stop-opacity:1;"
         offset="0"
         id="stop3818" />
      <stop
         style="stop-color:#64c5e6;stop-opacity:1;"
         offset="1"
         id="stop3820" />
    </linearGradient>
    <linearGradient
       id="linearGradient3805">
      <stop
         style="stop-color:#d26256;stop-opacity:1;"
         offset="0"
         id="stop3807" />
      <stop
         id="stop3815"
         offset="0.48837209"
         style="stop-color:#db695d;stop-opacity:1;" />
      <stop
         id="stop3813"
         offset="0.51162791"
         style="stop-color:#dc685c;stop-opacity:1;" />
      <stop
         style="stop-color:#d26156;stop-opacity:1;"
         offset="1"
         id="stop3809" />
    </linearGradient>
    <linearGradient
       inkscape:collect="always"
       id="linearGradient3761">
      <stop
         style="stop-color:#ffffff;stop-opacity:1;"
         offset="0"
         id="stop3763" />
      <stop
         style="stop-color:#ffffff;stop-opacity:0;"
         offset="1"
         id="stop3765" />
    </linearGradient>
    <radialGradient
       inkscape:collect="always"
       xlink:href="#linearGradient3761"
       id="radialGradient3767"
       cx="-195.5"
       cy="19.5"
       fx="-195.5"
       fy="19.5"
       r="21.5"
       gradientTransform="matrix(1,0,0,0.02325581,0,19.046512)"
       gradientUnits="userSpaceOnUse" />
    <linearGradient
       inkscape:collect="always"
       xlink:href="#linearGradient3805"
       id="linearGradient3811"
       x1="471"
       y1="189"
       x2="514"
       y2="189"
       gradientUnits="userSpaceOnUse" />
    <linearGradient
       inkscape:collect="always"
       xlink:href="#linearGradient3816"
       id="linearGradient3822"
       x1="58"
       y1="30"
       x2="58"
       y2="35"
       gradientUnits="userSpaceOnUse" />
    <linearGradient
       inkscape:collect="always"
       xlink:href="#linearGradient3847"
       id="linearGradient3845"
       x1="89"
       y1="18"
       x2="89"
       y2="23"
       gradientUnits="userSpaceOnUse" />
  </defs>
  <sodipodi:namedview
     id="base"
     pagecolor="#eeeeee"
     bordercolor="#666666"
     borderopacity="1.0"
     inkscape:pageopacity="1"
     inkscape:pageshadow="2"
     inkscape:zoom="11.313708"
     inkscape:cx="58.809686"
     inkscape:cy="17.176245"
     inkscape:current-layer="layer1"
     showgrid="true"
     inkscape:grid-bbox="true"
     inkscape:document-units="px"
     inkscape:window-width="1517"
     inkscape:window-height="781"
     inkscape:window-x="229"
     inkscape:window-y="147"
     inkscape:window-maximized="0"
     inkscape:snap-global="true"
     showguides="true"
     inkscape:guide-bbox="true"
     inkscape:snap-bbox="true">
    <inkscape:grid
       type="xygrid"
       id="grid2985"
       empspacing="5"
       visible="true"
       enabled="true"
       snapvisiblegridlinesonly="true" />
  </sodipodi:namedview>
  <metadata
     id="metadata6997">
    <rdf:RDF>
      <cc:Work
         rdf:about="">
        <dc:format>image/svg+xml</dc:format>
        <dc:type
           rdf:resource="http://purl.org/dc/dcmitype/StillImage" />
        <dc:title></dc:title>
      </cc:Work>
    </rdf:RDF>
  </metadata>
  <g
     id="layer1"
     inkscape:label="Layer 1"
     inkscape:groupmode="layer"
     transform="translate(0,-12)">
    <g
       transform="translate(-32.116116,-1)"
       id="active-center"
       inkscape:label="#g3800">
      <path
         style="fill:#31363b;fill-opacity:1;stroke:none"
         d="M 5 10 L 5 13 L 5 27 L 5 30 L 6 30 L 7 30 L 8 30 L 24 30 L 27 30 L 27 29 L 27 27 L 27 14 L 27 13 C 27 11.338 25.662 10 24 10 L 23 10 L 9 10 L 8 10 L 7 10 L 6 10 L 5 10 z "
         transform="translate(32.116116,13)"
         id="path3184" />
      <path
         style="fill:#eff0f1;fill-opacity:1;stroke:none"
         d="m 42.586116,29.232612 4.308914,4.308932 -4.087944,4.087961 0.707104,0.707107 4.087944,-4.087961 4.176331,4.176349 0.707104,-0.707107 -4.176332,-4.176349 4.397302,-4.39732 -0.707104,-0.707107 -4.397301,4.39732 -4.308914,-4.308932 -0.707104,0.707107 z"
         id="ehrerh-3-3"
         inkscape:connector-curvature="0" />
    </g>
    <g
       transform="translate(-7.116116,-1)"
       id="hover-center"
       inkscape:label="#g3800">
      <path
         style="fill:#31363b;fill-opacity:1;stroke:none"
         d="M 30 10 L 30 13 L 30 27 L 30 30 L 31 30 L 32 30 L 33 30 L 49 30 L 52 30 L 52 29 L 52 27 L 52 14 L 52 13 C 52 11.338 50.662 10 49 10 L 48 10 L 34 10 L 33 10 L 32 10 L 31 10 L 30 10 z "
         transform="translate(7.116116,13)"
         id="path3184-8" />
      <path
         sodipodi:type="arc"
         style="fill:#fcfcfc;fill-opacity:1;stroke:none"
         id="path3827"
         sodipodi:cx="40.5"
         sodipodi:cy="19.5"
         sodipodi:rx="6.5"
         sodipodi:ry="6.5"
         d="M 47,19.5 C 47,23.089851 44.089851,26 40.5,26 36.910149,26 34,23.089851 34,19.5 34,15.910149 36.910149,13 40.5,13 c 3.589851,0 6.5,2.910149 6.5,6.5 z"
         transform="matrix(1.1538461,0,0,1.1538461,0.8853493,11.000001)" />
      <path
         style="fill:#3daefd;fill-opacity:1;stroke:none"
         d="m 42.58601,29.232612 4.308914,4.308932 -4.087944,4.087961 0.707104,0.707107 4.087944,-4.087961 4.176331,4.176349 0.707104,-0.707107 -4.176332,-4.176349 4.397302,-4.39732 -0.707104,-0.707107 -4.397301,4.39732 -4.308914,-4.308932 -0.707104,0.707107 z"
         id="ehrerh-3-3-3"
         inkscape:connector-curvature="0" />
    </g>
    <g
       transform="translate(17.883884,-1)"
       id="pressed-center"
       inkscape:label="#g3800">
      <path
         style="fill:#31363b;fill-opacity:1;stroke:none"
         d="M 55 10 L 55 13 L 55 27 L 55 30 L 56 30 L 57 30 L 58 30 L 74 30 L 77 30 L 77 29 L 77 27 L 77 14 L 77 13 C 77 11.338 75.662 10 74 10 L 73 10 L 59 10 L 58 10 L 57 10 L 56 10 L 55 10 z "
         transform="translate(-17.883884,13)"
         id="path3184-5" />
      <path
         sodipodi:type="arc"
         style="fill:#eff0f1;fill-opacity:1;stroke:none"
         id="path3827-7"
         sodipodi:cx="40.5"
         sodipodi:cy="19.5"
         sodipodi:rx="6.5"
         sodipodi:ry="6.5"
         d="M 47,19.5 C 47,23.089851 44.089851,26 40.5,26 36.910149,26 34,23.089851 34,19.5 34,15.910149 36.910149,13 40.5,13 c 3.589851,0 6.5,2.910149 6.5,6.5 z"
         transform="matrix(1.1538461,0,0,1.1538461,0.8853493,11.000001)" />
      <path
         style="fill:#31363b;fill-opacity:1;stroke:none"
         d="m 42.585904,29.232612 4.308914,4.308932 -4.087944,4.087961 0.707104,0.707107 4.087944,-4.087961 4.176332,4.176349 0.707104,-0.707107 -4.176333,-4.176349 4.397303,-4.39732 -0.707104,-0.707107 -4.397302,4.39732 -4.308914,-4.308932 -0.707104,0.707107 z"
         id="ehrerh-3-3-1"
         inkscape:connector-curvature="0" />
    </g>
    <g
       transform="translate(42.883884,-1)"
       id="inactive-center"
       inkscape:label="#g3800">
      <path
         style="fill:#a7a8a9;fill-opacity:1;stroke:none"
         d="M 80 10 L 80 13 L 80 27 L 80 30 L 81 30 L 82 30 L 83 30 L 99 30 L 102 30 L 102 29 L 102 27 L 102 14 L 102 13 C 102 11.338 100.662 10 99 10 L 98 10 L 84 10 L 83 10 L 82 10 L 81 10 L 80 10 z "
         transform="translate(-42.883884,13)"
         id="path3184-7" />
      <path
         style="fill:#eff0f1;fill-opacity:1;stroke:none"
         d="m 42.585799,29.232612 4.308913,4.308932 -4.087943,4.087961 0.707104,0.707107 4.087943,-4.087961 4.176332,4.176349 0.707104,-0.707107 -4.176333,-4.176349 4.397303,-4.39732 -0.707104,-0.707107 -4.397302,4.39732 -4.308913,-4.308932 -0.707104,0.707107 z"
         id="ehrerh-3-3-4"
         inkscape:connector-curvature="0" />
    </g>
    <g
       transform="translate(67.883884,-1)"
       id="hover-inactive-center"
       inkscape:label="#g3800">
      <path
         inkscape:connector-curvature="0"
         style="fill:#a7a8a9;fill-opacity:1;stroke:none"
         d="m 30,10 0,3 0,14 0,3 1,0 1,0 1,0 16,0 3,0 0,-1 0,-2 0,-13 0,-1 c 0,-1.662 -1.338,-3 -3,-3 l -1,0 -14,0 -1,0 -1,0 -1,0 -1,0 z"
         transform="translate(7.116116,13)"
         id="path3184-8-0" />
      <path
         sodipodi:type="arc"
         style="fill:#fcfcfc;fill-opacity:1;stroke:none"
         id="path3827-9"
         sodipodi:cx="40.5"
         sodipodi:cy="19.5"
         sodipodi:rx="6.5"
         sodipodi:ry="6.5"
         d="M 47,19.5 C 47,23.089851 44.089851,26 40.5,26 36.910149,26 34,23.089851 34,19.5 34,15.910149 36.910149,13 40.5,13 c 3.589851,0 6.5,2.910149 6.5,6.5 z"
         transform="matrix(1.1538461,0,0,1.1538461,0.8853493,11.000001)" />
      <path
         style="fill:#3daefd;fill-opacity:1;stroke:none"
         d="m 42.585693,29.232612 4.308914,4.308932 -4.087944,4.087961 0.707104,0.707107 4.087944,-4.087961 4.176331,4.176349 0.707104,-0.707107 -4.176332,-4.176349 4.397302,-4.39732 -0.707104,-0.707107 -4.397301,4.39732 -4.308914,-4.308932 -0.707104,0.707107 z"
         id="ehrerh-3-3-3-5"
         inkscape:connector-curvature="0" />
    </g>
  </g>
</svg>
