<?xml version="1.0" encoding="UTF-8" standalone="no"?>
<!-- Created with Inkscape (http://www.inkscape.org/) -->

<svg
   xmlns:dc="http://purl.org/dc/elements/1.1/"
   xmlns:cc="http://creativecommons.org/ns#"
   xmlns:rdf="http://www.w3.org/1999/02/22-rdf-syntax-ns#"
   xmlns:svg="http://www.w3.org/2000/svg"
   xmlns="http://www.w3.org/2000/svg"
   xmlns:xlink="http://www.w3.org/1999/xlink"
   xmlns:sodipodi="http://sodipodi.sourceforge.net/DTD/sodipodi-0.dtd"
   xmlns:inkscape="http://www.inkscape.org/namespaces/inkscape"
   width="190"
   height="36"
   id="svg6992"
   version="1.1"
   inkscape:version="0.48.4 r9939"
   sodipodi:docname="restore.svg">
  <defs
     id="defs6994">
    <linearGradient
       id="linearGradient3847">
      <stop
         id="stop3849"
         offset="0"
         style="stop-color:#1c8bb2;stop-opacity:1;" />
      <stop
         id="stop3851"
         offset="1"
         style="stop-color:#209cc6;stop-opacity:1;" />
    </linearGradient>
    <linearGradient
       id="linearGradient3816">
      <stop
         style="stop-color:#33b2df;stop-opacity:1;"
         offset="0"
         id="stop3818" />
      <stop
         style="stop-color:#64c5e6;stop-opacity:1;"
         offset="1"
         id="stop3820" />
    </linearGradient>
    <linearGradient
       id="linearGradient3805">
      <stop
         style="stop-color:#d26256;stop-opacity:1;"
         offset="0"
         id="stop3807" />
      <stop
         id="stop3815"
         offset="0.48837209"
         style="stop-color:#db695d;stop-opacity:1;" />
      <stop
         id="stop3813"
         offset="0.51162791"
         style="stop-color:#dc685c;stop-opacity:1;" />
      <stop
         style="stop-color:#d26156;stop-opacity:1;"
         offset="1"
         id="stop3809" />
    </linearGradient>
    <linearGradient
       inkscape:collect="always"
       id="linearGradient3761">
      <stop
         style="stop-color:#ffffff;stop-opacity:1;"
         offset="0"
         id="stop3763" />
      <stop
         style="stop-color:#ffffff;stop-opacity:0;"
         offset="1"
         id="stop3765" />
    </linearGradient>
    <radialGradient
       inkscape:collect="always"
       xlink:href="#linearGradient3761"
       id="radialGradient3767"
       cx="-195.5"
       cy="19.5"
       fx="-195.5"
       fy="19.5"
       r="21.5"
       gradientTransform="matrix(1,0,0,0.02325581,0,19.046512)"
       gradientUnits="userSpaceOnUse" />
    <linearGradient
       inkscape:collect="always"
       xlink:href="#linearGradient3805"
       id="linearGradient3811"
       x1="471"
       y1="189"
       x2="514"
       y2="189"
       gradientUnits="userSpaceOnUse" />
    <linearGradient
       inkscape:collect="always"
       xlink:href="#linearGradient3816"
       id="linearGradient3822"
       x1="58"
       y1="30"
       x2="58"
       y2="35"
       gradientUnits="userSpaceOnUse" />
    <linearGradient
       inkscape:collect="always"
       xlink:href="#linearGradient3847"
       id="linearGradient3845"
       x1="89"
       y1="18"
       x2="89"
       y2="23"
       gradientUnits="userSpaceOnUse" />
  </defs>
  <sodipodi:namedview
     id="base"
     pagecolor="#ffffff"
     bordercolor="#666666"
     borderopacity="1.0"
     inkscape:pageopacity="1"
     inkscape:pageshadow="2"
     inkscape:zoom="4"
     inkscape:cx="87.55121"
     inkscape:cy="18.634452"
     inkscape:current-layer="layer1"
     showgrid="false"
     inkscape:grid-bbox="true"
     inkscape:document-units="px"
     inkscape:window-width="1517"
     inkscape:window-height="781"
     inkscape:window-x="144"
     inkscape:window-y="195"
     inkscape:window-maximized="0"
     inkscape:snap-global="true"
     showguides="true"
     inkscape:guide-bbox="true"
     inkscape:snap-bbox="true">
    <inkscape:grid
       type="xygrid"
       id="grid2985"
       empspacing="5"
       visible="true"
       enabled="true"
       snapvisiblegridlinesonly="true" />
  </sodipodi:namedview>
  <metadata
     id="metadata6997">
    <rdf:RDF>
      <cc:Work
         rdf:about="">
        <dc:format>image/svg+xml</dc:format>
        <dc:type
           rdf:resource="http://purl.org/dc/dcmitype/StillImage" />
        <dc:title></dc:title>
      </cc:Work>
    </rdf:RDF>
  </metadata>
  <g
     id="layer1"
     inkscape:label="Layer 1"
     inkscape:groupmode="layer"
     transform="translate(0,-12)">
    <g
       id="hover-center"
       inkscape:label="#g3835"
       transform="matrix(-1,0,0,-1,93,67.000002)">
      <path
         style="fill:#31363b;fill-opacity:1;stroke:none"
         d="m 55,45.000002 0,-3.809524 0,-16.190476 -21,0 0,16.190476 0,3.809524 21,0 z"
         id="rect3074-5"
         inkscape:connector-curvature="0" />
      <path
         sodipodi:type="arc"
         style="fill:#eff0f1;fill-opacity:1;stroke:none"
         id="path3827-7-8"
         sodipodi:cx="40.5"
         sodipodi:cy="19.5"
         sodipodi:rx="6.5"
         sodipodi:ry="6.5"
         d="M 47,19.5 C 47,23.089851 44.089851,26 40.5,26 36.910149,26 34,23.089851 34,19.5 34,15.910149 36.910149,13 40.5,13 c 3.589851,0 6.5,2.910149 6.5,6.5 z"
         transform="matrix(-1.1538461,0,0,-1.1538461,91.230767,57.000001)" />
      <path
         inkscape:connector-curvature="0"
         style="fill:#3daefd;fill-opacity:1;stroke:none"
         d="m 46,40.000002 c 0.741901,0 1.373473,-0.403091 1.71875,-1 l -1.71875,0 -4,0 -1,0 c -0.554,0 -1,-0.446 -1,-1 l 0,-4 0,-1.71875 c -0.596909,0.345277 -1,0.976849 -1,1.71875 l 0,4 c 0,1.108 0.892,2 2,2 l 5,0 z m 2,-2 c 1.108,0 2,-0.892 2,-2 l 0,-4 c 0,-1.108 -0.892,-2 -2,-2 l -5,0 c -1.108,0 -2,0.892 -2,2 l 0,4 c 0,1.108 0.892,2 2,2 l 5,0 z m 0,-1 -5,0 c -0.554,0 -1,-0.446 -1,-1 l 0,-4 c 0,-0.554 0.446,-1 1,-1 l 5,0 c 0.554,0 1,0.446 1,1 l 0,4 c 0,0.554 -0.446,1 -1,1 z"
         id="rect3019-0" />
    </g>
    <g
       transform="matrix(-1,0,0,-1,119,68)"
       id="inactive-center"
       inkscape:label="#g3793">
      <path
         style="fill:#a7a8a9;fill-opacity:1;stroke:none"
         d="M 37,46 37,42.190476 37,26 16,26 16,42.190476 16,46 37,46 z"
         id="rect3074-8"
         inkscape:connector-curvature="0" />
      <path
         inkscape:connector-curvature="0"
         style="fill:#eff0f1;fill-opacity:1;stroke:none"
         d="m 28,41 c 0.7419,0 1.37347,-0.403091 1.71875,-1 L 28,40 l -4,0 -1,0 c -0.554,0 -1,-0.446 -1,-1 l 0,-4 0,-1.71875 C 21.40309,33.626527 21,34.258099 21,35 l 0,4 c 0,1.108 0.892,2 2,2 l 5,0 z m 2,-2 c 1.108,0 2,-0.892 2,-2 l 0,-4 c 0,-1.108 -0.892,-2 -2,-2 l -5,0 c -1.108,0 -2,0.892 -2,2 l 0,4 c 0,1.108 0.892,2 2,2 l 5,0 z m 0,-1 -5,0 c -0.554,0 -1,-0.446 -1,-1 l 0,-4 c 0,-0.554 0.446,-1 1,-1 l 5,0 c 0.554,0 1,0.446 1,1 l 0,4 c 0,0.554 -0.446,1 -1,1 z"
         id="rect3019-5" />
    </g>
    <g
       transform="matrix(-1,0,0,-1,115,67.000002)"
       id="pressed-center"
       inkscape:label="#g3835">
      <path
         style="fill:#31363b;fill-opacity:1;stroke:none"
         d="m 55,45.000002 0,-3.809524 0,-16.190476 -21,0 0,16.190476 0,3.809524 21,0 z"
         id="rect3074-5-5"
         inkscape:connector-curvature="0" />
      <path
         sodipodi:type="arc"
         style="fill:#eff0f1;fill-opacity:1;stroke:none"
         id="path3827-7"
         sodipodi:cx="40.5"
         sodipodi:cy="19.5"
         sodipodi:rx="6.5"
         sodipodi:ry="6.5"
         d="M 47,19.5 C 47,23.089851 44.089851,26 40.5,26 36.910149,26 34,23.089851 34,19.5 34,15.910149 36.910149,13 40.5,13 c 3.589851,0 6.5,2.910149 6.5,6.5 z"
         transform="matrix(-1.1538461,0,0,-1.1538461,91.230767,57.000001)" />
      <path
         inkscape:connector-curvature="0"
         style="fill:#31363b;fill-opacity:1;stroke:none"
         d="m 46,40.000002 c 0.7419,0 1.37347,-0.403091 1.71875,-1 l -1.71875,0 -4,0 -1,0 c -0.554,0 -1,-0.446 -1,-1 l 0,-4 0,-1.71875 c -0.59691,0.345277 -1,0.976849 -1,1.71875 l 0,4 c 0,1.108 0.892,2 2,2 l 5,0 z m 2,-2 c 1.108,0 2,-0.892 2,-2 l 0,-4 c 0,-1.108 -0.892,-2 -2,-2 l -5,0 c -1.108,0 -2,0.892 -2,2 l 0,4 c 0,1.108 0.892,2 2,2 l 5,0 z m 0,-1 -5,0 c -0.554,0 -1,-0.446 -1,-1 l 0,-4 c 0,-0.554 0.446,-1 1,-1 l 5,0 c 0.554,0 1,0.446 1,1 l 0,4 c 0,0.554 -0.446,1 -1,1 z"
         id="rect3019-1" />
    </g>
    <g
       id="active-center"
       inkscape:label="#g3835"
       transform="matrix(-1,0,0,-1,71,67.000002)">
      <path
         style="fill:#31363b;fill-opacity:1;stroke:none"
         d="m 55,45.000002 0,-3.809524 0,-16.190476 -21,0 0,16.190476 0,3.809524 21,0 z"
         id="rect3074-5-1"
         inkscape:connector-curvature="0" />
      <path
         inkscape:connector-curvature="0"
         style="fill:#eff0f1;fill-opacity:1;stroke:none"
         d="m 46,40.000002 c 0.741901,0 1.373473,-0.403091 1.71875,-1 l -1.71875,0 -4,0 -1,0 c -0.554,0 -1,-0.446 -1,-1 l 0,-4 0,-1.71875 c -0.596909,0.345277 -1,0.976849 -1,1.71875 l 0,4 c 0,1.108 0.892,2 2,2 l 5,0 z m 2,-2 c 1.108,0 2,-0.892 2,-2 l 0,-4 c 0,-1.108 -0.892,-2 -2,-2 l -5,0 c -1.108,0 -2,0.892 -2,2 l 0,4 c 0,1.108 0.892,2 2,2 l 5,0 z m 0,-1 -5,0 c -0.554,0 -1,-0.446 -1,-1 l 0,-4 c 0,-0.554 0.446,-1 1,-1 l 5,0 c 0.554,0 1,0.446 1,1 l 0,4 c 0,0.554 -0.446,1 -1,1 z"
         id="rect3019" />
    </g>
    <g
       id="hover-inactive-center"
       inkscape:label="#g3835"
       transform="matrix(-1,0,0,-1,159,67.000002)">
      <path
         style="fill:#a7a8a9;fill-opacity:1;stroke:none"
         d="m 55,45.000002 0,-3.809524 0,-16.190476 -21,0 0,16.190476 0,3.809524 21,0 z"
         id="rect3074-5-0"
         inkscape:connector-curvature="0" />
      <path
         sodipodi:type="arc"
         style="fill:#eff0f1;fill-opacity:1;stroke:none"
         id="path3827-7-8-3"
         sodipodi:cx="40.5"
         sodipodi:cy="19.5"
         sodipodi:rx="6.5"
         sodipodi:ry="6.5"
         d="M 47,19.5 C 47,23.089851 44.089851,26 40.5,26 36.910149,26 34,23.089851 34,19.5 34,15.910149 36.910149,13 40.5,13 c 3.589851,0 6.5,2.910149 6.5,6.5 z"
         transform="matrix(-1.1538461,0,0,-1.1538461,91.230767,57.000001)" />
      <path
         inkscape:connector-curvature="0"
         style="fill:#3daefd;fill-opacity:1;stroke:none"
         d="m 46,40.000002 c 0.7419,0 1.37347,-0.403091 1.71875,-1 l -1.71875,0 -4,0 -1,0 c -0.554,0 -1,-0.446 -1,-1 l 0,-4 0,-1.71875 c -0.59691,0.345277 -1,0.976849 -1,1.71875 l 0,4 c 0,1.108 0.892,2 2,2 l 5,0 z m 2,-2 c 1.108,0 2,-0.892 2,-2 l 0,-4 c 0,-1.108 -0.892,-2 -2,-2 l -5,0 c -1.108,0 -2,0.892 -2,2 l 0,4 c 0,1.108 0.892,2 2,2 l 5,0 z m 0,-1 -5,0 c -0.554,0 -1,-0.446 -1,-1 l 0,-4 c 0,-0.554 0.446,-1 1,-1 l 5,0 c 0.554,0 1,0.446 1,1 l 0,4 c 0,0.554 -0.446,1 -1,1 z"
         id="rect3019-2" />
    </g>
  </g>
</svg>
